PathFileType	4	(X/Y/Z)	\\147.46.242.158\로컬 디스크 (e)\MOCAP Data\Iguana Capture\iguana\Project 2\Capture day 6 after broken\Session 2\Take08 good walk.trc
DataRate	CameraRate	NumFrames	NumMarkers	Units	OrigDataRate	OrigDataStartFrame	OrigNumFrames
120.0	120.0	17	23	mm	120.0	177	9299
Frame#	Time	ana:head1			ana:head2			ana:bone1			ana:bone2			ana:bone3			ana:tail1			ana:tail2			ana:tail3			ana:tail4			ana:Rforefoot1			ana:Rforefoot2			ana:Rforefoot3			ana:Lforefoot1			ana:Lforefoot2			ana:Lforefoot3			ana:RhindLeg1			ana:RhindLeg2			ana:RhindLeg3			ana:RhindLeg4			ana:LhindLeg1			ana:LhindLeg2			ana:LhindLeg3			ana:LhindLeg4			
		X1	Y1	Z1	X2	Y2	Z2	X3	Y3	Z3	X4	Y4	Z4	X5	Y5	Z5	X6	Y6	Z6	X7	Y7	Z7	X8	Y8	Z8	X9	Y9	Z9	X10	Y10	Z10	X11	Y11	Z11	X12	Y12	Z12	X13	Y13	Z13	X14	Y14	Z14	X15	Y15	Z15	X16	Y16	Z16	X17	Y17	Z17	X18	Y18	Z18	X19	Y19	Z19	X20	Y20	Z20	X21	Y21	Z21	X22	Y22	Z22	X23	Y23	Z23	

8809	73.400	233.55736	105.48356	43.22543	224.97444	112.06092	44.57187	206.41347	122.52938	39.15657	182.40202	135.01164	39.54012	152.86037	159.66583	35.06777	135.03735	185.59961	28.68139	111.43180	208.65170	19.31866	80.88204	240.13499	9.45005	59.45574	265.89221	7.26922	206.59505	111.21600	23.44048	203.15349	97.61501	15.01636	217.17033	95.05889	3.20221	210.03601	136.03825	23.59262	201.52686	147.76523	17.30822	190.39406	144.36891	6.24735	143.90141	156.39012	28.68646	128.60887	153.31505	24.57709	113.67325	165.64653	17.28908	111.94243	158.59354	7.12848	163.72064	164.18834	28.12723	180.74956	165.12846	24.13552	180.02426	174.99788	5.83800	190.40547	170.57422	3.38749	
8810	73.408	234.79332	104.39522	43.24436	226.20671	110.93836	44.84029	207.76323	121.68596	39.17667	184.02774	134.55017	39.73878	153.82666	158.92836	35.03818	136.28387	184.74760	28.71678	112.81840	207.92419	19.40747	81.86401	239.31012	9.20493	60.32249	264.52136	7.20638	207.56612	110.24463	23.98227	203.07176	97.23178	15.06299	216.95598	94.90191	2.93108	211.42010	135.16652	23.24609	203.06871	147.37234	17.80791	190.72264	143.37627	4.67855	145.15085	155.88977	28.89183	130.26134	152.66963	24.64537	114.97495	164.96788	18.08372	112.51103	158.39793	7.23236	165.39265	163.86273	28.44763	181.93857	165.58389	24.14295	180.23285	175.19392	5.57221	190.43439	170.96649	3.13127	
8811	73.417	236.38846	103.34618	43.81033	227.70972	110.19849	45.03234	209.40224	120.99836	39.47945	185.70247	134.03419	39.88726	155.89059	157.96359	35.79258	137.56900	183.95273	28.99969	113.90387	207.07565	19.75143	83.21915	238.32349	9.39152	61.14051	263.32742	7.09852	208.36781	109.62370	24.14903	203.24681	96.95671	15.19888	216.88254	94.82942	2.84621	213.18736	134.64531	23.28788	204.32353	146.59428	17.21143	191.24692	142.41316	3.30291	146.85690	155.16228	29.13446	131.81081	152.00078	25.01568	116.09593	164.15024	18.52782	113.21870	158.49548	7.18389	166.57033	163.42326	28.47367	183.22728	165.97710	23.71067	180.01735	175.13228	5.36205	190.44646	171.02269	3.00788	
8812	73.425	238.01389	102.84978	44.02028	229.10611	109.11369	45.27058	210.89633	120.34115	39.59917	187.57668	133.74907	40.27771	156.88997	157.25577	35.76191	138.32521	182.93813	29.20671	115.03378	206.16652	19.95984	84.12116	237.34221	9.56658	62.00787	262.41962	7.23477	209.67146	108.81367	24.69769	203.63443	96.62842	15.39855	217.06023	94.99745	3.08434	214.69588	133.73853	23.62834	205.89568	145.14336	17.96091	191.96159	141.53017	2.23307	148.49725	154.29854	29.79678	133.26112	151.26440	25.59676	117.13322	163.12541	19.68552	113.91478	158.07559	7.78173	167.75885	162.99779	28.29772	184.22122	166.31335	23.41184	180.01659	175.56337	5.40899	190.33859	171.14400	3.14436	
8813	73.433	239.39032	102.05500	44.28645	230.78146	108.57337	45.45502	212.63461	119.83352	39.83469	189.29642	133.46872	40.54893	158.64998	156.83746	36.48501	139.53061	182.03017	29.73441	115.98478	205.12125	20.45774	84.99379	236.32913	9.78503	62.82378	260.82037	7.33044	210.47893	108.39620	24.74415	203.32008	96.69254	15.28310	217.04036	94.95038	3.02913	216.59532	133.24762	23.63136	207.43556	144.55461	18.11080	192.88220	140.67397	1.35665	150.07988	153.58134	29.89572	134.80226	150.48871	26.17096	118.38049	161.65494	20.64566	113.82984	157.93649	7.89184	169.01030	162.61516	28.62148	185.06963	166.49858	22.82026	179.92287	175.77351	5.19349	190.55647	171.19513	3.26970	
8814	73.442	241.12933	101.09721	44.25937	232.40034	107.61710	45.79210	214.19250	119.08373	40.03032	190.95378	133.03255	40.80835	159.90541	155.85321	36.73156	140.49580	180.91470	30.10506	116.67291	204.05746	20.64979	85.90295	235.29021	9.93689	63.63868	260.02625	7.44930	211.27090	107.64709	25.07591	204.49124	96.23295	15.95144	217.01917	94.99677	2.75122	217.70290	132.12198	23.31757	209.16713	144.16446	18.52653	194.39619	140.34061	2.11565	151.46149	152.81097	30.20879	136.19925	149.67101	26.81675	119.55502	160.35104	21.18311	114.80970	156.85989	8.96186	170.31972	162.20326	28.80789	186.01518	166.98424	22.61219	179.95917	175.80664	5.14224	190.77176	171.23845	3.56117	
8815	73.450	242.46991	100.32291	44.43468	233.85281	106.80487	45.66470	215.64291	118.65841	40.31146	192.77904	132.70366	40.97721	161.66545	155.37181	36.84064	141.24593	179.80795	30.36751	117.55132	202.64388	20.98779	86.95606	234.01375	10.02160	64.57030	258.86963	7.57482	212.43036	107.13982	25.40201	204.94388	96.19621	16.20273	216.88376	94.89273	2.71731	219.98068	131.82074	24.23011	211.24809	143.72148	19.04568	200.24182	147.09702	8.89509	153.04198	151.95143	30.52913	137.66995	148.44833	27.14544	120.48740	158.81522	22.00081	115.46980	156.60040	9.90435	171.44807	161.93398	29.10653	186.92508	167.07587	22.49023	180.10661	175.80933	5.38349	190.78699	171.29517	3.55417	
8816	73.458	243.86024	99.56699	44.81666	235.25574	106.11517	45.82610	217.11241	117.92324	40.26511	194.14038	132.16164	41.08001	162.52815	154.38646	36.79306	142.04404	178.59763	30.60486	118.16231	201.34436	20.98549	87.60066	232.61279	10.07582	65.38918	257.74207	7.46047	213.25981	106.72099	25.53934	205.29935	96.26441	16.32905	216.91245	94.82339	2.78593	221.88037	131.03773	24.75142	213.21088	143.16205	20.08985	202.38341	147.17424	9.51091	154.54919	150.98521	30.90690	139.54640	147.42131	27.26583	121.86704	157.37341	22.10596	116.10524	155.56139	9.97861	172.50977	161.34206	29.21341	187.80438	167.07661	22.36666	180.23897	175.60402	5.66395	190.91554	171.18167	3.09549	
8817	73.467	245.12956	98.63286	44.70044	236.70702	105.46593	45.85157	218.54884	117.13783	40.38028	195.75972	131.56790	41.28601	164.72977	153.51421	37.61778	142.51442	177.18094	30.87232	118.89049	200.06908	21.32536	88.40869	231.39381	10.14398	66.25798	256.30478	7.55541	214.17383	105.74895	26.01337	205.50468	96.20676	16.45078	217.02580	94.83468	2.77926	223.74335	129.99818	25.55926	216.38731	143.24071	22.02578	206.06877	147.58562	10.76285	155.95151	150.09509	31.37137	140.60345	146.33496	27.69468	122.74821	156.02910	22.83087	116.63817	155.33522	10.00004	173.96216	161.11966	29.60918	188.43736	167.31955	22.29838	180.17946	175.41997	6.03579	191.02808	171.32318	3.25759	
8818	73.475	246.57152	98.05614	44.90144	238.16568	104.64970	46.12529	219.83258	116.31033	40.63884	197.32845	131.10921	41.29537	165.96683	152.68669	37.67788	143.49698	176.08615	30.90116	119.61066	198.82687	21.66575	89.06918	230.04697	10.09748	66.99358	254.92999	7.33263	215.05585	105.12096	26.26399	206.05971	95.91629	16.85487	217.18065	94.68706	2.83827	225.41338	129.17845	25.78568	219.01030	142.51794	23.07929	209.11404	146.80971	10.22779	157.46713	149.26344	31.32123	142.26767	145.52263	27.96685	124.01237	154.62579	23.23034	117.26125	154.16479	10.90577	174.88588	160.40440	29.44920	189.22966	167.43466	21.94889	180.27771	175.50754	6.21817	191.02806	171.32318	3.25758	
8819	73.483	247.83768	97.12920	44.86997	239.36641	103.69556	46.44975	221.47707	115.56777	40.86126	198.84853	130.65689	41.36760	167.22023	152.06113	37.87328	144.49814	174.82622	31.08552	120.31006	197.50140	21.43525	89.87526	228.60817	10.03909	67.69016	253.59027	7.41468	217.07654	104.20295	24.87033	206.23175	95.86568	16.75576	216.99855	94.88993	2.64634	227.22076	127.57388	26.19423	221.45280	141.41539	24.17321	212.64633	145.91133	10.17675	158.70328	148.30084	31.69609	143.92526	144.46252	27.80859	125.12673	153.41882	23.51240	118.01010	153.66200	11.24042	175.94022	159.87599	29.45614	189.83714	167.49860	21.80248	180.30042	175.48399	6.29911	191.02831	171.32341	3.25791	
8820	73.492	249.56653	96.04102	45.22425	240.68935	102.68115	46.40382	223.25465	114.46456	40.56383	200.36758	130.18262	41.49829	168.44360	151.44815	37.80270	145.40802	173.83076	31.09483	121.32680	196.07732	21.71355	90.79902	227.62787	10.09602	68.59788	252.42747	7.44677	217.83493	103.57143	25.16628	206.51620	95.57315	17.15279	216.95337	94.86726	2.65542	229.19308	126.14967	26.89934	223.85385	140.10710	25.38732	216.57413	145.19983	10.41873	160.58192	147.40433	31.45273	145.25301	143.20753	28.22951	126.39090	151.69984	23.86173	118.88313	152.43211	12.02087	177.28207	159.35550	29.41304	190.42439	167.70824	21.78964	180.29179	175.45079	6.29995	191.06564	171.31161	3.27718	
8821	73.500	250.80690	95.20773	45.17968	241.60513	101.82678	46.46631	224.44960	113.60764	40.79317	202.16969	129.71353	41.56073	170.32297	150.59682	38.11258	146.45967	172.82959	31.12053	122.05782	194.95895	21.49946	91.65677	226.38759	9.90258	69.54858	251.39854	7.43317	218.82690	103.25891	25.37709	206.83627	95.69289	17.31240	217.03766	94.91020	2.63996	231.01564	124.83064	27.53658	227.00105	139.12460	27.24829	221.32739	145.06906	11.16268	161.81883	146.72520	31.60784	146.81493	141.99550	28.34820	127.93479	149.75671	23.96617	119.91385	151.85252	12.64918	178.37086	159.00291	29.54827	191.29089	167.98480	20.87414	180.26636	175.46443	6.37067	191.05096	171.32053	3.25887	
8822	73.508	251.68094	94.26876	45.27787	242.86578	100.69993	46.26087	225.71198	112.51615	40.76986	203.54317	129.34134	41.65894	171.73528	149.93199	38.07191	147.51851	171.52995	31.04708	122.95641	193.69421	21.46332	92.66297	225.12686	9.67171	70.49207	250.28091	7.23045	219.31313	102.51603	25.40015	207.06227	95.71351	17.55688	217.02992	94.87025	2.69231	232.94510	123.35709	27.89755	230.33395	137.78017	28.56737	227.39195	144.57951	12.69326	163.55540	145.74060	31.96108	148.82022	141.01825	28.47941	129.26819	148.31197	24.55009	120.88429	150.45714	13.58270	179.44852	158.60548	29.46855	191.70952	167.98575	20.84616	179.98842	175.15067	5.87813	191.06952	171.34944	3.27288	
8823	73.517	253.03416	93.04530	45.49337	244.21092	99.53372	46.75837	226.93340	111.51693	40.83639	205.15274	128.85562	41.68307	172.87485	149.55968	37.86487	148.55255	170.53699	31.09215	123.97141	192.59305	21.21085	93.58781	223.97597	9.63052	71.28773	248.88554	7.23411	220.04933	101.85394	25.33835	207.40030	95.62038	17.43816	217.07874	94.89671	2.64771	234.68288	121.77532	28.16231	232.85182	136.11386	29.78709	232.92216	143.39821	14.33013	164.91895	145.15295	31.72929	149.58205	139.55415	28.66975	130.71599	146.61179	25.19483	121.75452	150.09639	14.11627	180.57068	157.97763	29.09517	192.34396	168.08508	20.70603	180.22491	175.14508	6.20585	191.06563	171.31160	3.27716	
8824	73.525	253.96812	92.22615	45.61240	245.14822	98.61540	46.97176	227.94179	110.78886	40.90528	206.54291	128.52248	41.50413	174.50136	148.68364	37.29050	149.66992	169.55188	31.16269	124.85883	191.49396	21.11122	94.31889	222.77800	9.70814	72.39708	247.76149	7.26687	220.72617	100.83784	25.50216	207.79961	95.71761	17.59353	217.07959	94.92067	2.65176	236.33482	120.45962	28.63806	235.85286	134.21812	31.01070	237.95795	141.45667	15.34555	166.54007	144.19418	31.66816	152.00438	138.05290	29.11854	132.46904	144.64375	25.10376	123.36386	148.29742	13.97781	181.63911	157.64510	29.07998	192.85648	168.44655	20.55223	180.30264	174.30820	5.73046	190.98825	170.86343	3.17251	
8825	73.533	255.03558	91.04684	45.66945	246.05460	97.57652	47.06978	229.10330	109.68921	40.98663	207.87782	128.07245	41.33722	176.32446	148.13480	37.26304	150.48027	168.60040	30.76544	125.80111	190.30315	21.18556	95.48721	221.56766	9.24995	73.25439	246.39067	7.14355	221.43100	100.35483	25.44453	208.02162	95.50212	17.82975	217.09758	94.76870	2.77809	237.70607	118.92573	29.04688	238.48355	132.54076	31.86931	242.63081	138.95905	16.81367	168.14749	143.36974	31.64919	154.01839	136.06956	29.46293	134.33572	142.58829	25.55271	125.32902	146.03142	15.23259	182.94551	157.50975	29.26798	193.29597	168.81004	20.12593	180.33295	174.07779	6.08344	191.14247	170.93533	3.31739	
